<?xml version="1.0" standalone="no"?>
<!DOCTYPE svg PUBLIC "-//W3C//DTD SVG 20010904//EN"
 "http://www.w3.org/TR/2001/REC-SVG-20010904/DTD/svg10.dtd">
<svg version="1.0" xmlns="http://www.w3.org/2000/svg"
 width="128.000000pt" height="128.000000pt" viewBox="0 0 128.000000 128.000000"
 preserveAspectRatio="xMidYMid meet">

	<g transform="translate(0.000000,128.000000) scale(0.100000,-0.100000)"
	fill="#000000" stroke="none">
		<path d="M487 1227 c-38 -13 -76 -32 -85 -42 -19 -20 -22 -21 78 22 57 24 77
28 165 27 90 0 108 -3 174 -32 95 -40 106 -33 16 10 -61 28 -81 32 -174 35
-92 3 -115 0 -174 -20z"/>
		<path d="M308 1183 c-6 -16 -14 -61 -17 -102 l-6 -75 -63 -14 c-69 -15 -69
-13 -14 -74 l25 -27 -79 -37 -79 -36 40 -19 c164 -77 164 -77 185 -62 17 12
27 11 80 -8 33 -12 59 -23 57 -25 -7 -8 -344 -137 -357 -137 -8 0 -24 -6 -35
-13 -19 -14 -19 -14 0 -13 11 0 75 6 143 12 67 7 122 10 122 7 0 -3 -7 -16
-16 -29 l-17 -24 -18 24 c-10 13 -19 19 -19 12 0 -6 7 -19 16 -28 12 -12 13
-19 5 -29 -9 -11 5 -10 64 4 41 10 75 16 75 14 0 -2 -9 -26 -20 -54 -11 -27
-18 -50 -16 -50 2 0 41 16 87 35 45 20 83 34 84 33 1 -2 13 -34 26 -73 22 -65
27 -71 59 -78 61 -15 85 2 110 80 13 37 24 70 26 71 1 2 38 -12 82 -32 44 -20
82 -36 86 -36 3 0 -3 23 -14 50 -11 28 -20 52 -20 54 0 2 34 -4 75 -14 61 -14
73 -15 64 -4 -9 11 -8 18 5 32 18 21 21 32 7 32 -5 0 -13 -10 -17 -22 l-7 -22
-18 23 c-11 13 -19 26 -19 30 0 4 55 1 123 -6 67 -6 130 -12 140 -12 12 -1 -6
18 -45 46 -34 26 -90 67 -122 92 -33 25 -56 38 -50 30 5 -7 9 -18 9 -24 0 -5
7 -10 15 -10 8 0 48 -24 88 -54 68 -51 88 -70 60 -58 -7 3 -87 35 -178 71 -91
35 -164 68 -162 73 1 4 26 16 54 25 46 16 54 16 74 3 24 -15 15 -18 184 62
l45 21 -78 36 -78 36 36 44 36 44 -63 14 -63 14 -6 75 c-6 68 -21 129 -33 129
-3 0 -22 -15 -42 -32 -21 -18 -49 -33 -63 -34 -14 0 -53 -8 -86 -17 -76 -22
-184 -22 -260 0 -33 9 -72 17 -86 17 -14 1 -42 16 -63 34 -20 17 -39 32 -42
32 -2 0 -10 -12 -16 -27z m66 -25 c16 -18 40 -49 53 -69 22 -34 28 -37 91 -44
85 -10 169 -10 254 0 64 7 68 9 94 49 32 50 74 96 87 96 6 0 3 -8 -5 -17 -9
-10 -37 -54 -63 -98 -46 -78 -47 -81 -31 -108 9 -16 16 -37 16 -47 0 -17 2
-17 36 -1 l35 16 -25 8 c-22 7 -24 12 -16 28 6 10 22 30 36 44 14 14 32 40 40
58 15 32 15 32 11 -31 -3 -57 -2 -62 15 -56 24 7 100 -5 93 -16 -3 -4 -24 -11
-47 -14 -24 -4 -50 -11 -58 -16 -23 -14 3 -34 94 -74 42 -19 79 -35 81 -37 2
-2 -65 -4 -148 -4 -210 0 -254 -18 -269 -109 -4 -25 -71 -49 -119 -43 -60 8
-92 28 -96 62 -10 72 -61 90 -260 90 -84 0 -149 3 -145 6 4 3 36 18 72 33 73
31 110 52 110 65 0 9 -68 31 -99 31 -11 0 -21 4 -21 9 0 12 73 24 98 17 16 -6
18 0 15 61 -2 56 -1 62 7 33 4 -19 13 -36 19 -38 6 -2 11 -7 11 -12 0 -4 14
-23 31 -41 l31 -34 -27 -11 -28 -11 33 -11 c18 -7 36 -9 40 -7 5 3 11 1 15 -5
3 -5 25 -19 48 -30 34 -17 36 -20 15 -17 -15 2 -25 0 -22 -4 9 -15 81 -10 94
6 21 25 83 51 88 37 2 -7 8 -12 14 -12 5 0 21 -9 35 -20 31 -24 82 -26 109 -4
18 15 18 15 -3 5 -45 -22 -46 -9 0 16 48 27 56 40 35 61 -19 19 -51 14 -111
-19 -53 -28 -57 -29 -57 -11 0 11 12 30 28 42 19 15 21 18 5 10 -12 -5 -25
-15 -28 -20 -4 -6 -11 -8 -16 -5 -5 4 -9 -1 -9 -10 0 -10 -7 -15 -17 -13 -11
2 -17 11 -15 23 2 16 1 17 -7 5 -8 -12 -14 -11 -38 10 l-28 25 29 -32 c43 -48
24 -59 -38 -23 -57 32 -94 38 -115 18 -7 -7 -5 1 4 17 17 29 17 31 -4 65 -13
19 -40 63 -61 98 -43 68 -41 81 4 30z m151 -231 c13 -10 15 -16 6 -21 -17 -11
-41 0 -41 19 0 19 11 19 35 2z m273 -4 c-3 -19 -48 -32 -48 -14 0 10 28 30 43
31 5 0 7 -8 5 -17z m-289 -257 c11 -17 27 -55 36 -83 10 -29 21 -51 25 -48 4
3 11 -26 15 -63 6 -51 10 -61 15 -42 6 21 8 23 15 8 9 -22 55 -24 55 -3 0 23
18 18 23 -7 3 -16 5 -12 6 12 2 58 13 112 21 100 4 -6 12 9 19 32 18 60 45
110 72 133 21 19 21 17 -3 -15 -28 -39 -48 -97 -73 -212 -18 -86 -37 -108 -90
-108 -59 0 -84 34 -100 135 -10 64 -44 162 -68 192 -14 18 -16 23 -4 14 9 -7
25 -27 36 -45z m131 -42 c0 -8 -8 -10 -22 -6 -17 4 -20 2 -15 -12 5 -12 3 -16
-5 -14 -7 3 -14 19 -16 36 -3 30 -3 31 27 19 17 -6 31 -17 31 -23z m70 17 c0
-26 -10 -51 -21 -51 -5 0 -9 7 -9 16 0 10 -6 14 -15 10 -24 -9 -17 20 8 32 32
15 37 14 37 -7z m-238 -40 c13 -5 -11 -21 -87 -59 -101 -50 -133 -55 -80 -14
13 11 22 22 19 25 -3 2 12 19 33 36 38 32 57 34 115 12z m450 -7 c34 -24 88
-84 88 -98 0 -3 -47 18 -105 46 -57 29 -101 56 -97 59 6 6 29 12 66 18 6 0 27
-11 48 -25z m-424 -53 c10 -6 -3 -23 -49 -65 -34 -31 -64 -54 -66 -52 -11 10
39 97 64 110 33 18 34 18 51 7z m343 -7 c19 -10 37 -31 50 -61 11 -25 18 -47
16 -49 -2 -2 -32 21 -66 52 -46 42 -59 59 -49 65 17 11 14 11 49 -7z m-182
-36 c-9 -16 -29 -25 -29 -14 0 2 -2 10 -5 18 -3 9 3 13 19 13 20 0 22 -3 15
-17z m-23 -155 c12 -3 31 0 43 6 11 7 21 8 21 2 0 -25 -91 -29 -111 -4 -12 15
-12 16 6 9 11 -5 30 -11 41 -13z"/>
		<path d="M941 873 c-1 -21 3 -23 42 -21 l42 1 -37 4 c-24 3 -38 10 -41 21 -3
12 -5 11 -6 -5z"/>
		<path d="M335 871 c-6 -5 -26 -11 -45 -14 -30 -3 -28 -4 13 -5 36 -2 47 2 47
13 0 17 -3 18 -15 6z"/>
		<path d="M371 864 c-1 -18 6 -22 50 -27 28 -4 61 -13 73 -20 11 -8 25 -14 30
-15 5 0 13 -6 17 -14 6 -9 9 -10 9 -1 0 21 -45 44 -109 56 -39 7 -62 17 -65
27 -2 9 -4 7 -5 -6z"/>
		<path d="M906 865 c-3 -8 -14 -15 -24 -15 -32 0 -120 -30 -137 -46 -8 -8 -15
-21 -14 -27 0 -8 2 -8 6 1 8 21 81 53 134 59 39 5 49 10 49 24 0 23 -6 24 -14
4z"/>
		<path d="M565 835 c-24 -11 -26 -14 -9 -15 11 0 29 7 40 15 24 18 9 18 -31 0z"/>
		<path d="M694 835 c11 -8 29 -14 40 -14 20 1 21 1 1 6 -11 3 -24 9 -29 14 -6
5 -15 9 -20 9 -6 0 -2 -7 8 -15z"/>
		<path d="M570 771 c-12 -23 -10 -27 16 -48 38 -30 84 -30 118 2 23 21 25 27
14 44 -8 13 -16 17 -22 11 -15 -15 -104 -12 -108 2 -3 8 -10 3 -18 -11z"/>
		<path d="M362 579 c-18 -12 -31 -24 -28 -27 3 -3 12 0 20 7 8 6 18 11 22 9 12
-3 74 19 74 26 0 14 -58 4 -88 -15z"/>
		<path d="M865 580 c21 -10 43 -16 48 -13 4 3 16 -1 26 -9 9 -7 4 -1 -13 15
-22 19 -40 27 -66 26 l-35 -1 40 -18z"/>
		<path d="M454 521 c-32 -19 -49 -39 -42 -46 2 -2 21 12 43 30 45 39 45 44 -1
16z"/>
		<path d="M840 501 c19 -16 37 -27 40 -24 7 7 -48 53 -63 53 -7 0 4 -14 23 -29z"/>
		<path d="M246 1040 c-9 -17 -13 -30 -8 -30 10 0 37 48 31 55 -3 2 -13 -9 -23
-25z"/>
		<path d="M1020 1049 c0 -9 7 -22 15 -29 19 -16 19 0 0 26 -12 16 -14 16 -15 3z"/>
		<path d="M187 914 c-4 -4 -7 -14 -7 -23 0 -11 3 -12 11 -4 6 6 10 16 7 23 -2
6 -7 8 -11 4z"/>
		<path d="M171 738 c1 -13 5 -34 9 -48 7 -21 8 -19 9 17 1 23 -3 45 -9 48 -6 3
-10 -4 -9 -17z"/>
		<path d="M1100 738 c0 -7 -3 -23 -6 -35 -4 -13 -2 -23 4 -23 5 0 12 16 14 35
2 19 0 35 -4 35 -4 0 -8 -6 -8 -12z"/>
		<path d="M295 720 c-4 -6 -13 -9 -20 -8 -8 2 -14 -1 -14 -6 0 -4 -17 -17 -38
-27 -21 -10 -51 -30 -68 -44 -22 -19 -15 -16 26 9 30 19 66 34 80 35 36 0 81
7 108 16 l24 7 -24 14 c-29 16 -65 18 -74 4z m-2 -26 c-23 -17 -30 -17 -30 -1
0 6 11 13 24 13 22 2 23 1 6 -12z"/>
		<path d="M911 716 l-24 -13 29 -8 c16 -5 38 -9 49 -10 11 -1 29 -6 40 -10 l20
-8 -20 17 -20 18 20 -6 c17 -5 16 -3 -5 14 -29 23 -55 25 -89 6z"/>
		<path d="M99 593 c-13 -16 -12 -17 4 -4 9 7 17 15 17 17 0 8 -8 3 -21 -13z"/>
		<path d="M315 440 c18 -19 31 -26 34 -19 2 7 -7 20 -20 30 -38 29 -46 22 -14
-11z"/>
		<path d="M950 445 c-13 -14 -19 -25 -13 -25 5 0 20 11 33 25 13 14 19 25 13
25 -5 0 -20 -11 -33 -25z"/>
		<path d="M1034 429 c-16 -17 -57 -51 -91 -76 -35 -25 -63 -47 -63 -49 0 -2 69
-3 153 -3 l152 2 -110 9 c-60 6 -112 12 -114 14 -2 2 21 31 52 63 51 53 64 71
54 71 -2 0 -16 -14 -33 -31z"/>
		<path d="M244 417 c16 -21 42 -47 57 -58 16 -11 29 -24 29 -29 0 -4 -51 -12
-112 -17 l-113 -10 153 -1 c83 -1 152 0 152 2 0 2 -17 15 -37 27 -20 13 -64
45 -97 73 -59 49 -60 49 -32 13z"/>
		<path d="M390 389 c0 -14 96 -56 145 -64 30 -5 36 -4 25 4 -8 6 -22 11 -30 11
-8 0 -43 13 -77 30 -35 16 -63 25 -63 19z"/>
		<path d="M865 385 c-10 -9 -44 -23 -75 -32 -58 -18 -85 -33 -58 -33 35 0 168
56 168 71 0 13 -12 11 -35 -6z"/>
		<path d="M70 195 c0 -32 2 -56 4 -54 8 8 10 98 3 105 -4 4 -7 -19 -7 -51z"/>
		<path d="M680 223 c0 -30 9 -27 15 6 2 11 0 21 -6 21 -5 0 -9 -12 -9 -27z"/>
		<path d="M150 185 c0 -27 3 -46 6 -42 3 3 6 22 6 42 0 20 -3 39 -6 42 -3 4 -6
-15 -6 -42z"/>
		<path d="M220 211 c0 -12 -8 -21 -22 -24 -23 -4 -23 -4 -1 -6 14 -1 23 -9 26
-23 2 -13 5 -2 6 25 0 26 -1 47 -4 47 -3 0 -5 -9 -5 -19z"/>
		<path d="M422 205 c0 -16 2 -22 5 -12 2 9 2 23 0 30 -3 6 -5 -1 -5 -18z"/>
		<path d="M480 195 c0 -19 4 -35 8 -35 4 0 6 16 4 35 -2 19 -6 35 -8 35 -2 0
-4 -16 -4 -35z"/>
		<path d="M540 193 c-3 -23 -2 -39 3 -34 5 5 7 24 5 42 -3 33 -4 33 -8 -8z"/>
		<path d="M603 180 c0 -30 2 -43 4 -28 2 16 2 40 0 56 -2 15 -4 2 -4 -28z"/>
		<path d="M1023 180 c0 -30 2 -43 4 -28 2 16 2 40 0 56 -2 15 -4 2 -4 -28z"/>
		<path d="M1110 185 c0 -27 3 -45 7 -42 7 8 6 77 -2 85 -3 3 -5 -16 -5 -43z"/>
		<path d="M767 213 c-10 -9 -9 -61 1 -67 4 -2 8 13 7 35 0 21 0 39 -1 39 0 0
-4 -3 -7 -7z"/>
		<path d="M892 195 c0 -16 2 -22 5 -12 2 9 2 23 0 30 -3 6 -5 -1 -5 -18z"/>
		<path d="M1161 204 c0 -11 3 -14 6 -6 3 7 2 16 -1 19 -3 4 -6 -2 -5 -13z"/>
		<path d="M951 184 c0 -11 3 -14 6 -6 3 7 2 16 -1 19 -3 4 -6 -2 -5 -13z"/>
		<path d="M682 165 c0 -16 2 -22 5 -12 2 9 2 23 0 30 -3 6 -5 -1 -5 -18z"/>
		<path d="M918 183 c7 -3 16 -2 19 1 4 3 -2 6 -13 5 -11 0 -14 -3 -6 -6z"/>
		<path d="M1145 170 c3 -5 20 -19 38 -31 l32 -22 -32 32 c-31 30 -50 41 -38 21z"/>
		<path d="M885 150 c-3 -5 -1 -10 4 -10 6 0 11 5 11 10 0 6 -2 10 -4 10 -3 0
-8 -4 -11 -10z"/>
	</g>
</svg>
